<?xml version="1.0" encoding="UTF-8"?>
<svg width="299px" height="298px" viewBox="0 0 299 298" version="1.1" xmlns="http://www.w3.org/2000/svg" xmlns:xlink="http://www.w3.org/1999/xlink">
    <!-- Generator: Sketch 51.2 (57519) - http://www.bohemiancoding.com/sketch -->
    <title>logo</title>
    <desc>Created with Sketch.</desc>
    <defs></defs>
    <g id="logo" stroke="none" stroke-width="1" fill="none" fill-rule="evenodd">
        <g id="Group">
            <rect id="Rectangle" x="0" y="0" width="299" height="298"></rect>
            <g id="Group-7" transform="translate(31.000000, 35.000000)">
                <g id="Group-6-Copy">
                    <g id="Group-5">
                        <path d="M26.4573991,100.480699 C35.9488164,117.402634 40.694525,132.394318 40.694525,145.455752 C40.694525,165.047903 63.1282666,196.205832 79.0324064,209.583368 C94.9365463,222.960903 125.313499,228.232049 134.251853,227.645508 C143.190207,227.058967 162.44911,219.025775 178.495361,200.875106 C189.192862,188.774659 195.759862,153.101525 198.196359,93.8557021 C185.539184,62.3265842 158.276087,46.5620253 116.407069,46.5620253 C74.5380502,46.5620253 44.5548271,64.5349165 26.4573991,100.480699 Z" id="Path-2" fill="#FFFFFF"></path>
                        <path d="M105.268912,134.810206 L132.115759,131.988489 C132.100026,131.656405 132.092075,131.322406 132.092075,130.986651 C132.092075,118.833344 142.509337,108.981142 155.35968,108.981142 C168.210024,108.981142 178.627286,118.833344 178.627286,130.986651 C178.627286,143.139958 168.210024,152.99216 155.35968,152.99216 C144.37326,152.99216 135.165282,145.790771 132.725218,136.106826 L106.269407,138.027578 C106.685721,139.799266 106.905934,141.646383 106.905934,143.544853 C106.905934,156.833437 96.1166271,167.605963 82.8073425,167.605963 C69.4980579,167.605963 58.708751,156.833437 58.708751,143.544853 C58.708751,130.256268 69.4980579,119.483742 82.8073425,119.483742 C93.03071,119.483742 101.7672,125.839921 105.268912,134.810206 Z" id="Combined-Shape" fill="#FCCF45" transform="translate(118.668019, 138.293553) rotate(-1.000000) translate(-118.668019, -138.293553) "></path>
                        <path d="M117.083291,161.408381 C112.339513,175.240547 113.419083,182.156631 120.322,182.156631 C127.224917,182.156631 132.808269,182.283 137.072056,182.535738 L117.083291,178.136104 L117.083291,161.408381 Z" id="Path-3" fill="#FCCF45"></path>
                        <path d="M46.9415867,145.639815 L66.6693075,211.779404 C65.0324414,215.804728 61.22592,217.369466 55.2497433,216.473617 C46.2854781,215.129845 39.2301304,206.659819 37.1476673,202.306767 C35.0652041,197.953716 0.123349472,144.339497 0.123349472,101.240833 C0.123349472,58.1421699 34.4245626,21.7086283 84.0330706,6.31988561 C133.641579,-9.06885704 194.017688,7.39936491 212.712918,33.8268367 C231.408149,60.2543086 240.152331,93.835861 233.686439,127.662067 C227.220547,161.488274 218.36319,191.344246 206.119516,194.67502 C197.957067,196.895536 192.732981,195.785278 190.447256,191.344246 L195.777344,145.639815 L199.508033,95.2791394 C174.318974,67.3959531 140.521466,59.3007324 98.1155094,70.9934774 C55.7095522,82.6862223 38.651578,107.568335 46.9415867,145.639815 Z" id="Path-5" fill="#FCCF45"></path>
                        <path d="M19.870221,89.8360471 C13.2902421,111.146408 25.2141607,135.269247 36.7095309,135.269247 C48.2049012,135.269247 95.0416442,121.383918 95.0416442,105.641966 C95.0416442,89.900014 101.535522,79.3454467 110.831743,76.9942827 C118.148315,75.143804 126.960228,79.7374788 132.316192,85.9001162 C137.672156,92.0627537 142.563962,97.0677688 147.23174,98.2639913 C163.408915,102.409755 195.556258,103.090027 204.424607,98.2639913 C213.066591,93.5611412 213.066591,52.5944208 204.424607,43.6062476 C191.688404,30.3598446 132.316192,9.10848964 90.0614236,24.3117807 C45.5275477,40.3350961 26.9205601,67.0023456 19.870221,89.8360471 Z" id="Path-4" fill-opacity="0.8" fill="#070928"></path>
                    </g>
                </g>
            </g>
            <polygon id="Path-11" fill="#FCCF45" points="141.06278 228.655696 171.951794 228.655696 171.951794 240.068849"></polygon>
        </g>
    </g>
</svg>