<?xml version="1.0" encoding="UTF-8"?>
<svg width="40px" height="47px" viewBox="0 0 40 47" version="1.1" xmlns="http://www.w3.org/2000/svg" xmlns:xlink="http://www.w3.org/1999/xlink">
    <!-- Generator: Sketch 51.2 (57519) - http://www.bohemiancoding.com/sketch -->
    <title>003-antenna</title>
    <desc>Created with Sketch.</desc>
    <defs></defs>
    <g id="pages" stroke="none" stroke-width="1" fill="none" fill-rule="evenodd">
        <g id="Index-page" transform="translate(-643.000000, -2036.000000)" fill="#FCCF45" fill-rule="nonzero">
            <g id="Group-3" transform="translate(603.000000, 2036.000000)">
                <g id="003-antenna" transform="translate(40.000000, 0.000000)">
                    <path d="M12.6707685,6.30016698 C13.0428126,6.05355887 13.1095642,5.59692204 12.8196431,5.28018323 C12.5298643,4.96356554 11.9932896,4.90675847 11.6211032,5.15348771 C11.5460966,5.2032696 11.4813376,5.26322589 11.4295304,5.33117636 C8.19015653,8.27484874 8.19015653,12.8526027 11.4295304,15.7962751 C11.5942033,15.9314492 11.8156649,16.0047292 12.0443852,15.9997631 C12.5160585,15.9997631 12.8983502,15.6744245 12.8984925,15.2731412 C12.8984925,15.0898809 12.8170812,14.9132824 12.6706262,14.7788349 C10.0461071,12.3939067 10.0461071,8.68509514 12.6707685,6.30016698 Z" id="Shape"></path>
                    <path d="M9.86776876,18.905485 C9.81802863,18.8393442 9.75599011,18.7807623 9.68383959,18.7322197 C5.58369498,14.9436496 5.58369498,9.05640741 9.68383959,5.26783728 C10.0410393,5.02736813 10.1049909,4.58209864 9.82677414,4.27324461 C9.54855737,3.96439057 9.03339172,3.90911574 8.67605534,4.14970299 C8.60404147,4.19824564 8.5418663,4.2567094 8.49212617,4.32296834 C3.83595794,8.64987755 3.83595794,15.3501794 8.49212617,19.6770886 C8.73864045,20.0054306 9.24642706,20.0987364 9.62617383,19.8856685 C10.0061939,19.6726005 10.114283,19.2337089 9.86776876,18.905485 Z" id="Shape"></path>
                    <path d="M4.75057426,1.40657515 C5.03243482,1.13977361 5.08300582,0.645745214 4.86336161,0.303070347 C4.64382523,-0.0394734782 4.23731631,-0.100801141 3.95534793,0.1660004 C3.89852294,0.219858668 3.84946152,0.284724465 3.81021238,0.358239035 C-1.27007079,6.95620445 -1.27007079,17.2115525 3.81021238,23.8095179 C3.93906601,23.9443601 4.10641397,24.0121089 4.27602632,23.9982184 C4.63325816,23.9879971 4.91598133,23.6278937 4.9075708,23.1937515 C4.9040125,23.011472 4.84848144,22.8362689 4.75046643,22.6982816 C0.137075454,16.7083512 0.137075454,7.39650562 4.75057426,1.40657515 Z" id="Shape"></path>
                    <path d="M28.5704028,5.33088951 C28.3136276,4.99443523 27.7847047,4.89882412 27.3891512,5.11715632 C26.9934554,5.33548852 26.8810095,5.78522382 27.1377847,6.12155707 C27.1895953,6.18933203 27.2542161,6.24936129 27.3293698,6.29910327 C29.9541995,8.68211938 29.9541995,12.3879575 27.3293698,14.7709737 C27.0132402,15.0611957 27.0283279,15.5132305 27.3635306,15.7875981 C27.6970253,16.0708006 28.2371928,16.0708006 28.5705452,15.7875981 C31.809842,12.8462857 31.809842,8.27232291 28.5704028,5.33088951 Z" id="Shape"></path>
                    <path d="M32.4331149,4.15182089 C32.0714525,3.90780915 31.5498506,3.96389829 31.2680196,4.27718252 C31.0506624,4.51891714 31.0339213,4.85353442 31.2266511,5.11060966 C35.3780209,8.95499308 35.3780209,14.9289662 31.2266511,18.7733496 C30.9118914,19.061945 30.9268338,19.5168903 31.2598566,19.7896657 C31.5840245,20.0701114 32.1089469,20.0701114 32.4331149,19.7896657 C37.1889617,15.3909825 37.1889617,8.55050406 32.4331149,4.15182089 Z" id="Shape"></path>
                    <path d="M36.1896446,0.355783341 C35.9951224,-0.00598342763 35.5944324,-0.108787653 35.2947776,0.12597035 C34.9951228,0.360728354 34.9098306,0.84429861 35.1043528,1.20593525 C35.1436023,1.27880913 35.1926642,1.34335456 35.2494897,1.39683879 C39.8954874,7.35375806 39.8954874,16.646219 35.2494897,22.6031383 C34.9676265,22.8680869 34.9170551,23.3586843 35.1367013,23.6989793 C35.3562397,24.0391441 35.7627524,24.100176 36.0447234,23.8350973 C36.1015489,23.781613 36.1506108,23.7171977 36.1898603,23.6441937 C41.2700825,17.092051 41.2700825,6.90792607 36.1896446,0.355783341 Z" id="Shape"></path>
                    <path d="M31.9687352,46.0193852 L24.2636848,19.4804848 C24.1712093,19.1558499 23.8807844,18.9326635 23.550621,18.9326635 L20.2427973,18.9326635 L20.2427973,16.7819575 C22.8636781,16.3617075 24.6557461,13.8447728 24.2454868,11.1600678 C23.8352275,8.47536279 21.3781285,6.63965406 18.7572477,7.05990404 C16.1363669,7.48015402 14.3442989,9.99708873 14.7545582,12.6817937 C15.0772939,14.7942029 16.6950573,16.4513625 18.7572477,16.7819575 L18.7572477,18.9326635 L15.4395204,18.9326635 C15.109357,18.9326635 14.818932,19.1558499 14.7264566,19.4804848 L7.03130982,46.0193852 C6.91370381,46.4227694 7.13765041,46.8474577 7.53144484,46.9679277 C7.92523927,47.0883977 8.33983139,46.8589975 8.4574374,46.4556133 L11.5176695,35.9049801 L27.4823755,35.9049801 L30.5426076,46.4556133 C30.6602136,46.8589975 31.0748057,47.0883977 31.4686002,46.9679277 C31.8623946,46.8474577 32.0862174,46.4227694 31.9687352,46.0193852 Z M16.1822951,11.9530138 C16.1822951,10.0760917 17.6677209,8.55449254 19.5000225,8.55449254 C21.3323241,8.55449254 22.8177499,10.0760917 22.8177499,11.9530138 C22.8177499,13.8299359 21.3323241,15.3515351 19.5000225,15.3515351 C17.6675971,15.3515351 16.1822951,13.8299359 16.1822951,11.9530138 Z M15.9940017,20.4543894 L22.995892,20.4543894 L23.0057957,20.4543894 L25.0855651,27.6369358 L13.9142323,27.6369358 L15.9940017,20.4543894 Z M11.9632106,34.3832542 L13.4784711,29.1586618 L25.5312299,29.1586618 L27.0464905,34.3832542 L11.9632106,34.3832542 Z" id="Shape"></path>
                </g>
            </g>
        </g>
    </g>
</svg>