<?xml version="1.0" encoding="UTF-8"?>
<svg width="60px" height="60px" viewBox="0 0 60 60" version="1.1" xmlns="http://www.w3.org/2000/svg" xmlns:xlink="http://www.w3.org/1999/xlink">
    <!-- Generator: Sketch 51.2 (57519) - http://www.bohemiancoding.com/sketch -->
    <title>001-instagram-logo</title>
    <desc>Created with Sketch.</desc>
    <defs></defs>
    <g id="pages" stroke="none" stroke-width="1" fill="none" fill-rule="evenodd" fill-opacity="0.6">
        <g id="Index-page" transform="translate(-660.000000, -2309.000000)" fill="#FCCF45" fill-rule="nonzero">
            <g id="001-instagram-logo" transform="translate(660.000000, 2309.000000)">
                <path d="M29.867205,35.7391304 C33.1019604,35.7391304 35.7391304,33.1066836 35.7391304,29.8695652 C35.7391304,28.5917243 35.3210569,27.4119062 34.6289917,26.448211 C33.5625499,24.9696002 31.8288438,24 29.870748,24 C27.9114712,24 26.1789461,24.9684192 25.1101423,26.44703 C24.4157151,27.4107252 24.0011846,28.5905433 24.0000036,29.8683842 C23.9964606,33.1055026 26.6312686,35.7391304 29.867205,35.7391304 Z" id="Shape"></path>
                <polygon id="Shape" points="41.7391304 22.156529 41.7391304 17.6301541 41.7391304 16.9565217 41.0601175 16.9586947 36.5217391 16.9728193 36.5391777 22.173913"></polygon>
                <path d="M30,0 C13.4580682,0 0,13.4580682 0,30 C0,46.5407234 13.4580682,60 30,60 C46.5407234,60 60,46.5407234 60,30 C60,13.4580682 46.5431403,0 30,0 Z M47.0615484,26.4992347 L47.0615484,40.4684605 C47.0615484,44.1069846 44.1033594,47.0639652 40.4672521,47.0639652 L19.5327479,47.0639652 C15.8954322,47.0639652 12.9384516,44.1069846 12.9384516,40.4684605 L12.9384516,26.4992347 L12.9384516,19.5339563 C12.9384516,15.8966406 15.8954322,12.93966 19.5327479,12.93966 L40.4660437,12.93966 C44.1033594,12.93966 47.0615484,15.8966406 47.0615484,19.5339563 L47.0615484,26.4992347 Z" id="Shape"></path>
                <path d="M39.4110402,30.1829781 C39.4110402,35.2435441 35.3369541,39.3637982 30.3278511,39.3637982 C25.3187481,39.3637982 21.2458382,35.2435441 21.2458382,30.1829781 C21.2458382,28.9656844 21.485767,27.801885 21.9138754,26.7391304 L16.9565217,26.7391304 L16.9565217,40.4812358 C16.9565217,42.2572484 18.3831576,43.6956522 20.1391075,43.6956522 L40.5130664,43.6956522 C42.2666641,43.6956522 43.6956522,42.2572484 43.6956522,40.4812358 L43.6956522,26.7391304 L38.7359463,26.7391304 C39.167583,27.801885 39.4110402,28.9656844 39.4110402,30.1829781 Z" id="Shape"></path>
            </g>
        </g>
    </g>
</svg>