<?xml version="1.0" encoding="UTF-8"?>
<svg width="60px" height="60px" viewBox="0 0 60 60" version="1.1" xmlns="http://www.w3.org/2000/svg" xmlns:xlink="http://www.w3.org/1999/xlink">
    <!-- Generator: Sketch 51.2 (57519) - http://www.bohemiancoding.com/sketch -->
    <title>002-linkedin-logo-button</title>
    <desc>Created with Sketch.</desc>
    <defs></defs>
    <g id="pages" stroke="none" stroke-width="1" fill="none" fill-rule="evenodd" fill-opacity="0.6">
        <g id="Index-page" transform="translate(-762.000000, -2309.000000)" fill="#FCCF45" fill-rule="nonzero">
            <g id="002-linkedin-logo-button" transform="translate(762.000000, 2309.000000)">
                <path d="M35.22,25.5576 C32.67,25.5576 31.5312,26.9592 30.894,27.9432 L30.894,25.8984 L26.0916,25.8984 C26.154,27.252 26.0916,40.3476 26.0916,40.3476 L30.894,40.3476 L30.894,32.2752 C30.894,31.8444 30.9216,31.4112 31.0512,31.1028 C31.3992,30.2388 32.1888,29.3448 33.516,29.3448 C35.2536,29.3448 35.9484,30.6696 35.9484,32.6136 L35.9484,40.344 L40.7508,40.344 L40.752,40.344 L40.752,32.058 C40.7496,27.6228 38.3796,25.5576 35.22,25.5576 Z M30.8904,27.9936 L30.8604,27.9936 C30.87,27.9768 30.8844,27.9612 30.8904,27.9444 L30.8904,27.9936 Z" id="Shape"></path>
                <rect id="Rectangle-path" x="18.6276" y="25.8984" width="4.8024" height="14.4492"></rect>
                <path d="M29.7912,0 C13.3644,0 0,13.3644 0,29.7912 C0,46.2168 13.3644,59.5824 29.7912,59.5824 C46.2168,59.5824 59.5824,46.2168 59.5824,29.7912 C59.5824,13.3644 46.2192,0 29.7912,0 Z M45.5892,43.266 C45.5892,44.5332 44.538,45.558 43.2384,45.558 L16.1412,45.558 C14.8452,45.558 13.7928,44.5332 13.7928,43.266 L13.7928,15.8532 C13.7928,14.5872 14.8452,13.5612 16.1412,13.5612 L43.2384,13.5612 C44.5368,13.5612 45.5892,14.5884 45.5892,15.8532 L45.5892,43.266 Z" id="Shape"></path>
                <path d="M21.0612,18.9324 C19.4196,18.9324 18.3444,20.01 18.3444,21.4284 C18.3444,22.8144 19.3872,23.9244 20.9976,23.9244 L21.0288,23.9244 C22.704,23.9244 23.7468,22.8144 23.7468,21.4284 C23.7144,20.0112 22.7052,18.9324 21.0612,18.9324 Z" id="Shape"></path>
            </g>
        </g>
    </g>
</svg>