<?xml version="1.0" encoding="UTF-8"?>
<svg width="419px" height="419px" viewBox="0 0 419 419" version="1.1" xmlns="http://www.w3.org/2000/svg" xmlns:xlink="http://www.w3.org/1999/xlink">
    <!-- Generator: Sketch 51.2 (57519) - http://www.bohemiancoding.com/sketch -->
    <title>project</title>
    <desc>Created with Sketch.</desc>
    <defs></defs>
    <g id="Page-1" stroke="none" stroke-width="1" fill="none" fill-rule="evenodd">
        <g id="project" fill="#FCCF45" fill-rule="nonzero">
            <path d="M134.33,150.953 L39.432,150.953 C35.566,150.953 32.432,154.087 32.432,157.953 L32.432,274.326 C32.432,278.192 35.566,281.326 39.432,281.326 L134.33,281.326 C138.196,281.326 141.33,278.192 141.33,274.326 L141.33,157.953 C141.33,154.087 138.196,150.953 134.33,150.953 Z M127.33,267.326 L46.432,267.326 L46.432,164.953 L127.33,164.953 L127.33,267.326 Z M161.595,281.326 L256.492,281.326 C260.358,281.326 263.492,278.192 263.492,274.326 L263.492,234.301 C263.492,230.435 260.358,227.301 256.492,227.301 L161.595,227.301 C157.729,227.301 154.595,230.435 154.595,234.301 L154.595,274.326 C154.595,278.193 157.729,281.326 161.595,281.326 Z M168.595,241.301 L249.492,241.301 L249.492,267.326 L168.595,267.326 L168.595,241.301 Z M398.463,25.257 L229.477,25.257 L229.477,7.001 C229.477,3.135 226.343,0.001 222.477,0.001 L195.612,0.001 C191.746,0.001 188.612,3.135 188.612,7.001 L188.612,25.257 L19.626,25.257 C8.804,25.257 0,34.061 0,44.883 L0,297.441 C0,308.263 8.804,317.068 19.626,317.068 L131.695,317.068 L103.687,404.088 L92.148,404.088 C88.282,404.088 85.148,407.222 85.148,411.088 C85.148,414.954 88.282,418.088 92.148,418.088 L159.01,418.088 C162.876,418.088 166.01,414.954 166.01,411.088 C166.01,407.222 162.876,404.088 159.01,404.088 L149.155,404.088 L177.164,317.068 L240.925,317.068 L268.934,404.088 L259.08,404.088 C255.214,404.088 252.08,407.222 252.08,411.088 C252.08,414.954 255.214,418.088 259.08,418.088 L325.941,418.088 C329.807,418.088 332.941,414.954 332.941,411.088 C332.941,407.222 329.807,404.088 325.941,404.088 L314.403,404.088 L286.395,317.068 L398.464,317.068 C409.286,317.068 418.089,308.263 418.089,297.441 L418.089,44.883 C418.088,34.061 409.285,25.257 398.463,25.257 Z M202.612,14.001 L215.477,14.001 L215.477,25.257 L202.612,25.257 L202.612,14.001 Z M134.448,404.087 L118.395,404.087 L146.403,317.067 L162.457,317.067 L134.448,404.087 Z M299.695,404.087 L283.641,404.087 L255.632,317.067 L271.686,317.067 L299.695,404.087 Z M404.088,297.441 C404.088,300.544 401.565,303.068 398.463,303.068 L277.019,303.068 C276.866,303.062 276.712,303.062 276.558,303.068 L246.258,303.068 C246.104,303.062 245.951,303.062 245.797,303.068 L172.294,303.068 C172.139,303.062 171.986,303.062 171.833,303.068 L141.532,303.068 C141.378,303.062 141.224,303.062 141.072,303.068 L19.626,303.068 C16.524,303.068 14,300.544 14,297.441 L14,74.378 L404.088,74.378 L404.088,297.441 Z M404.088,60.378 L14,60.378 L14,44.883 C14,41.78 16.524,39.257 19.626,39.257 L398.463,39.257 C401.565,39.257 404.088,41.78 404.088,44.883 L404.088,60.378 Z M51.008,130.649 C61.831,130.649 70.636,121.844 70.636,111.021 C70.636,100.199 61.831,91.394 51.008,91.394 C40.186,91.394 31.381,100.199 31.381,111.021 C31.381,121.844 40.186,130.649 51.008,130.649 Z M51.008,105.394 C54.111,105.394 56.636,107.918 56.636,111.021 C56.636,114.125 54.111,116.649 51.008,116.649 C47.905,116.649 45.381,114.125 45.381,111.021 C45.381,107.918 47.905,105.394 51.008,105.394 Z M161.595,210.985 L256.492,210.985 C260.358,210.985 263.492,207.851 263.492,203.985 L263.492,101.303 C263.492,97.437 260.358,94.303 256.492,94.303 L161.595,94.303 C157.729,94.303 154.595,97.437 154.595,101.303 L154.595,203.985 C154.595,207.851 157.729,210.985 161.595,210.985 Z M168.595,108.303 L249.492,108.303 L249.492,196.985 L168.595,196.985 L168.595,108.303 Z M82.287,123.647 C82.287,119.781 85.421,116.647 89.287,116.647 L114.34,116.647 C118.206,116.647 121.34,119.781 121.34,123.647 C121.34,127.513 118.206,130.647 114.34,130.647 L89.287,130.647 C85.421,130.647 82.287,127.513 82.287,123.647 Z M283.758,281.326 L378.656,281.326 C382.522,281.326 385.656,278.192 385.656,274.326 L385.656,187.803 C385.656,183.937 382.522,180.803 378.656,180.803 L283.758,180.803 C279.892,180.803 276.758,183.937 276.758,187.803 L276.758,274.326 C276.758,278.193 279.893,281.326 283.758,281.326 Z M290.758,194.803 L371.656,194.803 L371.656,267.326 L290.758,267.326 L290.758,194.803 Z M283.758,164.953 L378.656,164.953 C382.522,164.953 385.656,161.819 385.656,157.953 L385.656,101.303 C385.656,97.437 382.522,94.303 378.656,94.303 L283.758,94.303 C279.892,94.303 276.758,97.437 276.758,101.303 L276.758,157.953 C276.758,161.82 279.893,164.953 283.758,164.953 Z M290.758,108.303 L371.656,108.303 L371.656,150.953 L290.758,150.953 L290.758,108.303 Z M82.287,101.303 C82.287,97.437 85.421,94.303 89.287,94.303 L132.934,94.303 C136.8,94.303 139.934,97.437 139.934,101.303 C139.934,105.169 136.8,108.303 132.934,108.303 L89.287,108.303 C85.421,108.303 82.287,105.169 82.287,101.303 Z" id="XMLID_20_"></path>
        </g>
    </g>
</svg>