<?xml version="1.0" encoding="UTF-8"?>
<svg width="75px" height="75px" viewBox="0 0 75 75" version="1.1" xmlns="http://www.w3.org/2000/svg" xmlns:xlink="http://www.w3.org/1999/xlink">
    <!-- Generator: Sketch 51.2 (57519) - http://www.bohemiancoding.com/sketch -->
    <title>section</title>
    <desc>Created with Sketch.</desc>
    <defs></defs>
    <g id="section" stroke="none" stroke-width="1" fill="none" fill-rule="evenodd">
        <path d="M23.8921308,71 C23.7161048,71 23.5400787,70.9560308 23.3822622,70.8640951 C22.959395,70.6202658 22.7732525,70.1146196 22.9411855,69.6589385 L33.5088189,40.9610225 L20.7358015,37.3615416 C20.4060055,37.2696059 20.1450014,37.0177821 20.043837,36.6940087 C19.9446959,36.3702353 20.015511,36.0164829 20.2380726,35.7566647 L46.1462759,5.35394179 C46.4538157,4.99219495 46.975824,4.89826069 47.3966679,5.11610823 C47.8175118,5.33795298 48.0259105,5.82361309 47.8923735,6.27529699 L40.4223941,31.8713838 L53.2642032,35.4908507 C53.5960225,35.5827864 53.8570266,35.8366088 53.9561677,36.1623808 C54.0573321,36.4881528 53.9804472,36.8439038 53.7558622,37.1017234 L24.6609803,70.6522434 C24.4626981,70.8780853 24.1794377,71 23.8921308,71 Z M22.7914621,35.8625906 L35.1072164,39.3301638 C35.378337,39.4061107 35.602922,39.589982 35.7324124,39.83581 C35.8598796,40.0836365 35.8780891,40.3714351 35.7809713,40.6312533 L26.744967,65.17008 L51.1923563,36.9798087 L38.8927883,33.5162327 C38.6338075,33.444283 38.4152923,33.2724033 38.2837786,33.0405656 C38.1522649,32.8087278 38.1219156,32.5349194 38.1967772,32.2790985 L44.6308332,10.2365248 L22.7914621,35.8625906 Z" id="Shape" fill="#FCCF45" fill-rule="nonzero"></path>
    </g>
</svg>