<?xml version="1.0" encoding="UTF-8"?>
<svg width="537px" height="749px" viewBox="0 0 537 749" version="1.1" xmlns="http://www.w3.org/2000/svg" xmlns:xlink="http://www.w3.org/1999/xlink">
    <!-- Generator: Sketch 51.2 (57519) - http://www.bohemiancoding.com/sketch -->
    <title>work</title>
    <desc>Created with Sketch.</desc>
    <defs></defs>
    <g id="Page-1" stroke="none" stroke-width="1" fill="none" fill-rule="evenodd">
        <g id="work" transform="translate(0.000000, -1.000000)" fill="#FCCF45" fill-rule="nonzero">
            <path d="M286.765625,284.078125 C285.0625,278.972656 280.289062,275.535156 274.917969,275.535156 L264.796875,275.535156 C302.882812,245.347656 325.015625,199.355469 324.835938,150.746094 C324.914062,87.011719 287.992188,29.027344 230.203125,2.132812 C226.34375,0.363281 221.835938,0.679688 218.261719,2.972656 C214.6875,5.269531 212.523438,9.226562 212.523438,13.476562 L212.523438,138.269531 L112.6875,138.269531 L112.6875,13.476562 C112.6875,9.226562 110.523438,5.269531 106.949219,2.972656 C103.371094,0.679688 98.867188,0.363281 95.007812,2.132812 C38.6875,27.890625 1.972656,83.507812 0.425781,145.421875 C-1.121094,207.339844 32.761719,264.714844 87.730469,293.257812 L87.730469,350.410156 L56.53125,350.410156 C38.792969,350.425781 22.820312,361.171875 16.121094,377.597656 C9.417969,394.027344 13.324219,412.875 25.996094,425.289062 C17.597656,433.496094 12.855469,444.746094 12.855469,456.484375 C12.855469,468.234375 17.597656,479.484375 25.996094,487.683594 C17.597656,495.890625 12.855469,507.144531 12.855469,518.882812 C12.855469,530.628906 17.597656,541.878906 25.996094,550.078125 C13.324219,562.5 9.417969,581.347656 16.121094,597.773438 C22.820312,614.203125 38.792969,624.945312 56.53125,624.953125 L87.730469,624.953125 L87.730469,674.871094 C87.730469,716.230469 121.257812,749.746094 162.605469,749.746094 C203.960938,749.746094 237.480469,716.230469 237.480469,674.871094 L237.480469,624.953125 L536.980469,624.953125 L536.980469,599.996094 L312.355469,599.996094 L312.355469,375.371094 L536.980469,375.371094 L536.980469,350.410156 L308.875,350.410156 L286.765625,284.078125 Z M282.570312,350.410156 L237.480469,350.410156 L237.480469,300.496094 L265.917969,300.496094 L282.570312,350.410156 Z M237.480469,34.601562 C272.804688,57.941406 295.5625,96.105469 299.316406,138.269531 L237.480469,138.269531 L237.480469,34.601562 Z M105.414062,274.207031 C59.902344,253.441406 29.328125,209.523438 25.644531,159.632812 C21.964844,109.742188 45.765625,61.816406 87.730469,34.589844 L87.730469,150.746094 C87.730469,157.636719 93.316406,163.222656 100.210938,163.222656 L299.316406,163.222656 C294.800781,211.847656 264.398438,254.253906 219.796875,274.140625 C215.351562,276.183594 212.507812,280.628906 212.523438,285.523438 L212.523438,350.410156 L175.085938,350.410156 L175.085938,288.015625 L150.125,288.015625 L150.125,350.410156 L112.6875,350.410156 L112.6875,285.523438 C112.707031,280.628906 109.859375,276.183594 105.414062,274.140625 L105.414062,274.207031 Z M37.8125,581.277344 C37.8125,570.941406 46.191406,562.558594 56.53125,562.558594 C63.425781,562.558594 69.011719,556.972656 69.011719,550.078125 C69.011719,543.191406 63.425781,537.601562 56.53125,537.601562 C46.191406,537.601562 37.8125,529.226562 37.8125,518.882812 C37.8125,508.546875 46.191406,500.164062 56.53125,500.164062 C63.425781,500.164062 69.011719,494.578125 69.011719,487.683594 C69.011719,480.796875 63.425781,475.203125 56.53125,475.203125 C46.191406,475.203125 37.8125,466.828125 37.8125,456.484375 C37.8125,446.152344 46.191406,437.765625 56.53125,437.765625 C63.425781,437.765625 69.011719,432.179688 69.011719,425.289062 C69.011719,418.398438 63.425781,412.808594 56.53125,412.808594 C46.191406,412.808594 37.8125,404.433594 37.8125,394.089844 C37.8125,383.753906 46.191406,375.371094 56.53125,375.371094 L287.398438,375.371094 L287.398438,599.996094 L56.53125,599.996094 C46.191406,599.996094 37.8125,591.621094 37.8125,581.277344 Z M212.523438,674.871094 C212.523438,702.449219 190.171875,724.789062 162.605469,724.789062 C135.039062,724.789062 112.6875,702.449219 112.6875,674.871094 L112.6875,624.953125 L212.523438,624.953125 L212.523438,674.871094 Z" id="Shape"></path>
            <path d="M187.5625,674.871094 C187.5625,688.65625 176.390625,699.832031 162.605469,699.832031 C148.824219,699.832031 137.648438,688.65625 137.648438,674.871094 C137.648438,661.089844 148.824219,649.914062 162.605469,649.914062 C176.390625,649.914062 187.5625,661.089844 187.5625,674.871094 Z" id="Shape"></path>
            <polygon id="Shape" points="112.6875 199.390625 212.523438 199.390625 212.523438 224.347656 112.6875 224.347656"></polygon>
            <path d="M337.316406,537.601562 C337.316406,558.277344 354.078125,575.039062 374.753906,575.039062 C395.425781,575.039062 412.191406,558.277344 412.191406,537.601562 C412.191406,516.925781 395.425781,500.164062 374.753906,500.164062 C354.078125,500.164062 337.316406,516.925781 337.316406,537.601562 Z M387.230469,537.601562 C387.230469,544.492188 381.644531,550.078125 374.753906,550.078125 C367.859375,550.078125 362.273438,544.492188 362.273438,537.601562 C362.273438,530.710938 367.859375,525.121094 374.753906,525.121094 C381.644531,525.121094 387.230469,530.710938 387.230469,537.601562 Z" id="Shape"></path>
        </g>
    </g>
</svg>